<svg xmlns="http://www.w3.org/2000/svg" viewBox="0 0 2355.14 243.26"><defs><style>.cls-1{fill:#fff;}</style></defs><g id="Layer_2" data-name="Layer 2"><g id="Text_outlines" data-name="Text outlines"><path class="cls-1" d="M266.77,67.24V176H248.18v-49.2H199.53V176H180.4V67.24H199v43.19h48.66V67.24ZM161.26,176H142.68V67.24h18.58Zm-37.17,0H104.41L55.76,96.21h-.55V176h-18V67.24H56.85l49.2,79.81h.55V67.24h18V176Zm208.83-54.66L266.77,0H21.87A22.05,22.05,0,0,0,0,22.41V220.85a22.05,22.05,0,0,0,21.87,22.41H266.22Z"/><path class="cls-1" d="M283.17,242.72l66.69-121.36L283.17,0h16.4c9.29,0,20.23,6.56,24.6,14.76l58.49,106.6L324.17,228c-4.37,8.2-15.31,14.76-24.6,14.76Z"/><path class="cls-1" d="M428.15,30.88h16.5L485.4,96.63h.25V30.88h14.88v89.25H484L443.4,54.51H443v65.62H428.15Z"/><path class="cls-1" d="M571.15,105.76a7.54,7.54,0,0,0,.69,3.75,2.9,2.9,0,0,0,2.69,1.12H576a9.16,9.16,0,0,0,2-.25v9.88c-.5.16-1.15.35-1.94.56s-1.61.39-2.44.56-1.67.29-2.5.38-1.54.12-2.12.12a13.68,13.68,0,0,1-7.25-1.75Q558.9,118.38,558,114a25.29,25.29,0,0,1-10.44,6,41.15,41.15,0,0,1-11.94,1.87,29.25,29.25,0,0,1-8.37-1.19,21.77,21.77,0,0,1-7.07-3.5,16.81,16.81,0,0,1-4.87-5.87,18.1,18.1,0,0,1-1.81-8.31,19.18,19.18,0,0,1,2.18-9.75,16.3,16.3,0,0,1,5.75-5.88,25.79,25.79,0,0,1,8-3.06,90.4,90.4,0,0,1,8.94-1.44,73.25,73.25,0,0,1,7.38-1.06A34.71,34.71,0,0,0,552,80.76a9.4,9.4,0,0,0,4.25-2.32,6.36,6.36,0,0,0,1.57-4.68,7.24,7.24,0,0,0-1.32-4.5,8.71,8.71,0,0,0-3.25-2.69,14,14,0,0,0-4.31-1.25,34.17,34.17,0,0,0-4.5-.31,17.85,17.85,0,0,0-9.87,2.5,9.72,9.72,0,0,0-4.38,7.75H515.9a21.46,21.46,0,0,1,3-10.38,20.63,20.63,0,0,1,6.69-6.62,27.15,27.15,0,0,1,9.19-3.5,54.34,54.34,0,0,1,10.5-1,44,44,0,0,1,9.37,1A26.5,26.5,0,0,1,563,58a17.94,17.94,0,0,1,5.94,5.81,15.94,15.94,0,0,1,2.25,8.69Zm-14.25-18a17.36,17.36,0,0,1-8,2.56c-3.17.29-6.33.73-9.5,1.31A31.3,31.3,0,0,0,535,92.69a13.18,13.18,0,0,0-3.75,1.88,8.22,8.22,0,0,0-2.57,3.12,10.81,10.81,0,0,0-.93,4.69,6,6,0,0,0,1.37,4,10,10,0,0,0,3.31,2.56,15.18,15.18,0,0,0,4.25,1.32,26.35,26.35,0,0,0,4.19.37A23.7,23.7,0,0,0,546,110a17.08,17.08,0,0,0,5.18-2.13,13.72,13.72,0,0,0,4.07-3.81,9.67,9.67,0,0,0,1.62-5.69Z"/><path class="cls-1" d="M580,55.51h10.75V36.13H605V55.51H617.9V66.13H605v34.5a36,36,0,0,0,.18,3.88,6.76,6.76,0,0,0,.88,2.75,4.13,4.13,0,0,0,2.06,1.68,10.05,10.05,0,0,0,3.75.57c1,0,2,0,3-.07a14.77,14.77,0,0,0,3-.43v11c-1.58.16-3.12.33-4.62.5a43.7,43.7,0,0,1-4.63.25,31.43,31.43,0,0,1-9.06-1.07,12.08,12.08,0,0,1-5.38-3.12,10.85,10.85,0,0,1-2.62-5.19,38.59,38.59,0,0,1-.81-7.12V66.13H580Z"/><path class="cls-1" d="M628.52,30.88h14.25v13.5H628.52Zm0,24.63h14.25v64.62H628.52Z"/><path class="cls-1" d="M687.9,121.88a35.31,35.31,0,0,1-13.81-2.56,29.38,29.38,0,0,1-10.25-7.06,30.18,30.18,0,0,1-6.38-10.75,43.88,43.88,0,0,1,0-27.38,30.09,30.09,0,0,1,6.38-10.75,29.38,29.38,0,0,1,10.25-7.06,38.53,38.53,0,0,1,27.62,0A29.47,29.47,0,0,1,712,63.38a30.24,30.24,0,0,1,6.38,10.75,44.07,44.07,0,0,1,0,27.38A30.32,30.32,0,0,1,712,112.26a29.47,29.47,0,0,1-10.25,7.06A35.31,35.31,0,0,1,687.9,121.88Zm0-11.25a16.37,16.37,0,0,0,8.25-2,17.35,17.35,0,0,0,5.75-5.25,23,23,0,0,0,3.31-7.31,32.87,32.87,0,0,0,0-16.56,22.23,22.23,0,0,0-3.31-7.32A17.69,17.69,0,0,0,696.15,67a18,18,0,0,0-16.5,0,17.69,17.69,0,0,0-5.75,5.18,22,22,0,0,0-3.31,7.32,32.57,32.57,0,0,0,0,16.56,22.73,22.73,0,0,0,3.31,7.31,17.35,17.35,0,0,0,5.75,5.25A16.37,16.37,0,0,0,687.9,110.63Z"/><path class="cls-1" d="M732.4,55.51h13.5V65l.25.25a23.78,23.78,0,0,1,8.5-8.44,22.65,22.65,0,0,1,11.62-3.06q10.62,0,16.75,5.5t6.13,16.5v44.37H774.9V79.51c-.17-5.09-1.25-8.77-3.25-11.07S766.52,65,762.27,65a15.4,15.4,0,0,0-6.5,1.31,14,14,0,0,0-4.87,3.62,17.07,17.07,0,0,0-3.13,5.44A19.39,19.39,0,0,0,746.65,82v38.12H732.4Z"/><path class="cls-1" d="M858.27,105.76a7.54,7.54,0,0,0,.69,3.75,2.9,2.9,0,0,0,2.69,1.12h1.5a9.16,9.16,0,0,0,2-.25v9.88c-.5.16-1.15.35-1.94.56s-1.61.39-2.44.56-1.67.29-2.5.38-1.54.12-2.12.12a13.68,13.68,0,0,1-7.25-1.75q-2.88-1.75-3.75-6.12a25.29,25.29,0,0,1-10.44,6,41.15,41.15,0,0,1-11.94,1.87,29.25,29.25,0,0,1-8.37-1.19,21.87,21.87,0,0,1-7.07-3.5,16.81,16.81,0,0,1-4.87-5.87,18.1,18.1,0,0,1-1.81-8.31,19.29,19.29,0,0,1,2.18-9.75,16.3,16.3,0,0,1,5.75-5.88,25.89,25.89,0,0,1,8-3.06,90.4,90.4,0,0,1,8.94-1.44,73.25,73.25,0,0,1,7.38-1.06,34.71,34.71,0,0,0,6.18-1.06,9.35,9.35,0,0,0,4.25-2.32,6.32,6.32,0,0,0,1.57-4.68,7.24,7.24,0,0,0-1.32-4.5,8.63,8.63,0,0,0-3.25-2.69A14,14,0,0,0,836,65.32a34.17,34.17,0,0,0-4.5-.31,17.85,17.85,0,0,0-9.87,2.5,9.72,9.72,0,0,0-4.38,7.75H803a21.46,21.46,0,0,1,3-10.38,20.63,20.63,0,0,1,6.69-6.62,27.15,27.15,0,0,1,9.19-3.5,54.34,54.34,0,0,1,10.5-1,44,44,0,0,1,9.37,1A26.41,26.41,0,0,1,850.08,58,17.94,17.94,0,0,1,856,63.82a15.94,15.94,0,0,1,2.25,8.69ZM844,87.76a17.36,17.36,0,0,1-8,2.56c-3.17.29-6.33.73-9.5,1.31a31.3,31.3,0,0,0-4.37,1.06,13.18,13.18,0,0,0-3.75,1.88,8.22,8.22,0,0,0-2.57,3.12,10.81,10.81,0,0,0-.93,4.69,6,6,0,0,0,1.37,4,10,10,0,0,0,3.31,2.56,15.28,15.28,0,0,0,4.25,1.32,26.44,26.44,0,0,0,4.19.37,23.7,23.7,0,0,0,5.13-.62,17.08,17.08,0,0,0,5.18-2.13,13.72,13.72,0,0,0,4.07-3.81A9.67,9.67,0,0,0,844,98.38Z"/><path class="cls-1" d="M874,30.88h14.25v89.25H874Z"/><path class="cls-1" d="M940.52,30.88h15.63v75.75h45.37v13.5h-61Z"/><path class="cls-1" d="M1010.65,30.88h14.25v13.5h-14.25Zm0,24.63h14.25v64.62h-14.25Z"/><path class="cls-1" d="M1040.77,30.88H1055v33h.25a19.61,19.61,0,0,1,3.63-4.25,22.61,22.61,0,0,1,4.68-3.19,24.84,24.84,0,0,1,5.38-2,23.75,23.75,0,0,1,5.56-.68,30.88,30.88,0,0,1,13.31,2.68,26.32,26.32,0,0,1,9.44,7.38,32,32,0,0,1,5.63,10.94,46.26,46.26,0,0,1,1.87,13.37,47.2,47.2,0,0,1-1.69,12.63,32.83,32.83,0,0,1-5.12,10.81,25,25,0,0,1-21.06,10.31,50.47,50.47,0,0,1-6.57-.44,24.79,24.79,0,0,1-6.31-1.68,22,22,0,0,1-5.44-3.25,16,16,0,0,1-4.06-5.25h-.25v8.87h-13.5Zm49.75,57a32.14,32.14,0,0,0-1.12-8.5,23,23,0,0,0-3.38-7.31,17.46,17.46,0,0,0-5.62-5.13,15.32,15.32,0,0,0-7.75-1.93q-9,0-13.57,6.25t-4.56,16.62a33.14,33.14,0,0,0,1.19,9.06,20.36,20.36,0,0,0,3.56,7.19,17.79,17.79,0,0,0,5.69,4.75,16.19,16.19,0,0,0,7.69,1.75,16,16,0,0,0,8.25-2,17.37,17.37,0,0,0,5.56-5.19,20.85,20.85,0,0,0,3.12-7.25A36.51,36.51,0,0,0,1090.52,87.88Z"/><path class="cls-1" d="M1116.77,55.51h13.37V68h.25a14.51,14.51,0,0,1,2.44-5.13,23.55,23.55,0,0,1,4.38-4.56,21.74,21.74,0,0,1,5.68-3.31,16.93,16.93,0,0,1,6.38-1.25,32.28,32.28,0,0,1,3.44.12l1.93.25V67.88c-1-.17-2-.31-3.06-.44a26.69,26.69,0,0,0-3.06-.18,16.46,16.46,0,0,0-6.81,1.43,15.76,15.76,0,0,0-5.57,4.25,21,21,0,0,0-3.75,6.94,30.24,30.24,0,0,0-1.37,9.5v30.75h-14.25Z"/><path class="cls-1" d="M1214.89,105.76a7.54,7.54,0,0,0,.69,3.75,2.9,2.9,0,0,0,2.69,1.12h1.5a9.16,9.16,0,0,0,2-.25v9.88c-.5.16-1.15.35-1.94.56s-1.6.39-2.44.56-1.66.29-2.5.38-1.54.12-2.12.12a13.68,13.68,0,0,1-7.25-1.75q-2.88-1.75-3.75-6.12a25.22,25.22,0,0,1-10.44,6,41,41,0,0,1-11.94,1.87,29.3,29.3,0,0,1-8.37-1.19,21.71,21.71,0,0,1-7.06-3.5,16.73,16.73,0,0,1-4.88-5.87,18.1,18.1,0,0,1-1.81-8.31,19.18,19.18,0,0,1,2.19-9.75,16.14,16.14,0,0,1,5.75-5.88,25.69,25.69,0,0,1,8-3.06,89.73,89.73,0,0,1,8.93-1.44,73.66,73.66,0,0,1,7.38-1.06,35,35,0,0,0,6.19-1.06,9.46,9.46,0,0,0,4.25-2.32,6.36,6.36,0,0,0,1.56-4.68,7.3,7.3,0,0,0-1.31-4.5,8.79,8.79,0,0,0-3.25-2.69,14,14,0,0,0-4.32-1.25,34.17,34.17,0,0,0-4.5-.31,17.85,17.85,0,0,0-9.87,2.5,9.75,9.75,0,0,0-4.38,7.75h-14.25a21.46,21.46,0,0,1,3-10.38,20.63,20.63,0,0,1,6.69-6.62,27.15,27.15,0,0,1,9.19-3.5,54.34,54.34,0,0,1,10.5-1,44,44,0,0,1,9.37,1,26.46,26.46,0,0,1,8.32,3.25,18,18,0,0,1,5.93,5.81,15.94,15.94,0,0,1,2.25,8.69Zm-14.25-18a17.32,17.32,0,0,1-8,2.56q-4.74.44-9.5,1.31a31.3,31.3,0,0,0-4.37,1.06,13.18,13.18,0,0,0-3.75,1.88,8.1,8.1,0,0,0-2.56,3.12,10.66,10.66,0,0,0-.94,4.69,6,6,0,0,0,1.37,4,9.94,9.94,0,0,0,3.32,2.56,15.08,15.08,0,0,0,4.25,1.32,26.23,26.23,0,0,0,4.18.37,23.63,23.63,0,0,0,5.13-.62,17.24,17.24,0,0,0,5.19-2.13,13.8,13.8,0,0,0,4.06-3.81,9.67,9.67,0,0,0,1.62-5.69Z"/><path class="cls-1" d="M1230.27,55.51h13.37V68h.25a14.51,14.51,0,0,1,2.44-5.13,23.55,23.55,0,0,1,4.38-4.56,21.74,21.74,0,0,1,5.68-3.31,16.93,16.93,0,0,1,6.38-1.25,32.41,32.41,0,0,1,3.44.12l1.93.25V67.88c-1-.17-2-.31-3.06-.44a26.69,26.69,0,0,0-3.06-.18,16.46,16.46,0,0,0-6.81,1.43,15.76,15.76,0,0,0-5.57,4.25,21,21,0,0,0-3.75,6.94,30.24,30.24,0,0,0-1.37,9.5v30.75h-14.25Z"/><path class="cls-1" d="M1267.14,55.51h15.63l16.87,48.25h.25l16.38-48.25h14.87L1306,123.63c-1.17,2.92-2.31,5.71-3.44,8.38a30.25,30.25,0,0,1-4.12,7.06,17.89,17.89,0,0,1-6.07,4.87,20.61,20.61,0,0,1-9.25,1.82,64.81,64.81,0,0,1-9.87-.75V133c1.16.16,2.29.35,3.37.56a18.63,18.63,0,0,0,3.38.31,11.76,11.76,0,0,0,4.12-.62,6.86,6.86,0,0,0,2.69-1.82,11.22,11.22,0,0,0,1.81-2.81,27.6,27.6,0,0,0,1.38-3.75l1.62-5Z"/><path class="cls-1" d="M1403.52,121.88a35.31,35.31,0,0,1-13.81-2.56,29.38,29.38,0,0,1-10.25-7.06,30.18,30.18,0,0,1-6.38-10.75,43.88,43.88,0,0,1,0-27.38,30.09,30.09,0,0,1,6.38-10.75,29.38,29.38,0,0,1,10.25-7.06,38.53,38.53,0,0,1,27.62,0,29.47,29.47,0,0,1,10.25,7.06A30.24,30.24,0,0,1,1434,74.13a44.07,44.07,0,0,1,0,27.38,30.32,30.32,0,0,1-6.38,10.75,29.47,29.47,0,0,1-10.25,7.06A35.35,35.35,0,0,1,1403.52,121.88Zm0-11.25a16.42,16.42,0,0,0,8.25-2,17.35,17.35,0,0,0,5.75-5.25,23,23,0,0,0,3.31-7.31,32.87,32.87,0,0,0,0-16.56,22.23,22.23,0,0,0-3.31-7.32,17.69,17.69,0,0,0-5.75-5.18,18,18,0,0,0-16.5,0,17.59,17.59,0,0,0-5.75,5.18,22,22,0,0,0-3.31,7.32,32.57,32.57,0,0,0,0,16.56,22.73,22.73,0,0,0,3.31,7.31,17.25,17.25,0,0,0,5.75,5.25A16.37,16.37,0,0,0,1403.52,110.63Z"/><path class="cls-1" d="M1441.64,55.51h10.63V50.13a27.62,27.62,0,0,1,1.5-9.94,14,14,0,0,1,4-5.87,13.1,13.1,0,0,1,5.68-2.75,31.62,31.62,0,0,1,6.69-.69,40.41,40.41,0,0,1,10,.88V42.88a19.9,19.9,0,0,0-2.94-.56,30.26,30.26,0,0,0-3.68-.19,8.66,8.66,0,0,0-4.94,1.38c-1.38.91-2.06,2.7-2.06,5.37v6.63h12.12V66.13h-12.12v54h-14.25v-54h-10.63Z"/><path class="cls-1" d="M1523.89,30.88h22l24.62,69.88h.25l24-69.88h21.75v89.25h-14.87V51.26h-.25l-24.75,68.87h-12.88L1539,51.26h-.25v68.87h-14.87Z"/><path class="cls-1" d="M1644.39,91.51a24.8,24.8,0,0,0,1.06,7.25,17.85,17.85,0,0,0,3.19,6.12,15.33,15.33,0,0,0,5.37,4.19,17.77,17.77,0,0,0,7.75,1.56q6.26,0,10.07-2.69a15.89,15.89,0,0,0,5.68-8.06H1691a26.68,26.68,0,0,1-10.5,16.31,28.31,28.31,0,0,1-8.68,4.25,35,35,0,0,1-10.07,1.44,34.18,34.18,0,0,1-13.5-2.5,27.91,27.91,0,0,1-9.93-7,29.73,29.73,0,0,1-6.13-10.75,43.83,43.83,0,0,1-2.06-13.75,38.84,38.84,0,0,1,2.19-13.06,33.28,33.28,0,0,1,6.25-10.88,29.34,29.34,0,0,1,22.81-10.18,29.06,29.06,0,0,1,13.69,3.18,30.14,30.14,0,0,1,10.06,8.44A34.3,34.3,0,0,1,1691,77.44a37.05,37.05,0,0,1,.94,14.07Zm33.25-9.38a23.13,23.13,0,0,0-1.44-6.5,17.34,17.34,0,0,0-3.25-5.44,16.07,16.07,0,0,0-5-3.75,14.86,14.86,0,0,0-6.56-1.43,17,17,0,0,0-6.81,1.31,15.36,15.36,0,0,0-5.25,3.62,18,18,0,0,0-3.5,5.44,18.76,18.76,0,0,0-1.44,6.75Z"/><path class="cls-1" d="M1763.64,120.13h-13.5v-8.75h-.25a16.91,16.91,0,0,1-8.38,8.06,28.26,28.26,0,0,1-11.62,2.44,30.85,30.85,0,0,1-13.31-2.69,26.5,26.5,0,0,1-9.44-7.31,31.27,31.27,0,0,1-5.63-10.94,47.38,47.38,0,0,1-1.87-13.56A43.4,43.4,0,0,1,1702,72.26a30.33,30.33,0,0,1,6.32-10.5,24.44,24.44,0,0,1,9-6.07,28.63,28.63,0,0,1,10.31-1.93,34,34,0,0,1,6.12.56,26.68,26.68,0,0,1,6,1.81,23.69,23.69,0,0,1,5.32,3.19,17.84,17.84,0,0,1,4.06,4.56h.25v-33h14.25Zm-49.75-31.62a31.42,31.42,0,0,0,1.06,8.12,22.34,22.34,0,0,0,3.25,7.13,16.49,16.49,0,0,0,5.56,5,16.23,16.23,0,0,0,8,1.87,16,16,0,0,0,8.19-2,17,17,0,0,0,5.63-5.25,24,24,0,0,0,3.25-7.31,33.1,33.1,0,0,0,1.06-8.31q0-10.76-4.81-16.75A15.87,15.87,0,0,0,1732,65a16.06,16.06,0,0,0-8.43,2.06,17.32,17.32,0,0,0-5.63,5.37,22.21,22.21,0,0,0-3.12,7.5A38.87,38.87,0,0,0,1713.89,88.51Z"/><path class="cls-1" d="M1779.51,30.88h14.25v13.5h-14.25Zm0,24.63h14.25v64.62h-14.25Z"/><path class="cls-1" d="M1852.89,77.13q-.89-6-4.82-9.06a15.68,15.68,0,0,0-9.93-3.06,20.62,20.62,0,0,0-5.88.93,14.1,14.1,0,0,0-5.75,3.5,19.58,19.58,0,0,0-4.37,7.13,33.84,33.84,0,0,0-1.75,11.94,35.29,35.29,0,0,0,.93,8,22.09,22.09,0,0,0,3,7.12,16.3,16.3,0,0,0,5.32,5.06,15,15,0,0,0,7.87,1.94,14.32,14.32,0,0,0,10.31-3.87q4.07-3.89,5.07-10.88h14.25q-2,12.63-9.57,19.31t-20.06,6.69a33.22,33.22,0,0,1-13.44-2.56,28.55,28.55,0,0,1-9.81-7,29.63,29.63,0,0,1-6.06-10.56,41.16,41.16,0,0,1-2.06-13.25,45.06,45.06,0,0,1,2-13.63,31.05,31.05,0,0,1,6-11.06,28.11,28.11,0,0,1,9.93-7.38A33.6,33.6,0,0,1,1838,53.76a39.31,39.31,0,0,1,10.69,1.43,28.23,28.23,0,0,1,9,4.32,23,23,0,0,1,6.44,7.25,25,25,0,0,1,3,10.37Z"/><path class="cls-1" d="M1879.14,30.88h14.25v13.5h-14.25Zm0,24.63h14.25v64.62h-14.25Z"/><path class="cls-1" d="M1908.89,55.51h13.5V65l.25.25a23.78,23.78,0,0,1,8.5-8.44,22.65,22.65,0,0,1,11.62-3.06q10.62,0,16.75,5.5t6.13,16.5v44.37h-14.25V79.51c-.17-5.09-1.25-8.77-3.25-11.07S1943,65,1938.76,65a15.4,15.4,0,0,0-6.5,1.31,14,14,0,0,0-4.87,3.62,17.07,17.07,0,0,0-3.13,5.44,19.39,19.39,0,0,0-1.12,6.63v38.12h-14.25Z"/><path class="cls-1" d="M1991.76,91.51a24.8,24.8,0,0,0,1.06,7.25,17.85,17.85,0,0,0,3.19,6.12,15.37,15.37,0,0,0,5.38,4.19,17.74,17.74,0,0,0,7.75,1.56q6.24,0,10.06-2.69a15.9,15.9,0,0,0,5.69-8.06h13.5a26.8,26.8,0,0,1-10.5,16.31,28.36,28.36,0,0,1-8.69,4.25,34.91,34.91,0,0,1-10.06,1.44,34.11,34.11,0,0,1-13.5-2.5,27.94,27.94,0,0,1-9.94-7,29.73,29.73,0,0,1-6.13-10.75,43.83,43.83,0,0,1-2.06-13.75,38.84,38.84,0,0,1,2.19-13.06A33.46,33.46,0,0,1,1986,63.94a29.34,29.34,0,0,1,22.81-10.18,29,29,0,0,1,13.69,3.18,30.14,30.14,0,0,1,10.06,8.44,34.13,34.13,0,0,1,5.81,12.06,37.05,37.05,0,0,1,.94,14.07ZM2025,82.13a23.13,23.13,0,0,0-1.44-6.5,17.34,17.34,0,0,0-3.25-5.44,16.07,16.07,0,0,0-5-3.75,14.82,14.82,0,0,0-6.56-1.43,17,17,0,0,0-6.81,1.31,15.55,15.55,0,0,0-5.25,3.62,18,18,0,0,0-3.5,5.44,18.76,18.76,0,0,0-1.44,6.75Z"/><path class="cls-1" d="M438.18,164.56l-9.9,47.55h28.27l-1.27,6H419.8l11.25-53.55Z"/><path class="cls-1" d="M475.08,179.34,467,218.11h-6.3l8-38.77Zm-4.95-7,1.65-7.8h6.45l-1.65,7.8Z"/><path class="cls-1" d="M502,185.75a9.73,9.73,0,0,0-5.77-1.69,19.79,19.79,0,0,0-2.93.23,9.32,9.32,0,0,0-2.66.78,5.5,5.5,0,0,0-1.91,1.5A3.8,3.8,0,0,0,488,189a3.38,3.38,0,0,0,.86,2.33,8.89,8.89,0,0,0,2.32,1.8,25.41,25.41,0,0,0,3.3,1.53l3.72,1.47q1.95.83,3.78,1.8a17,17,0,0,1,3.27,2.21,10.15,10.15,0,0,1,2.32,2.92,8.27,8.27,0,0,1,.9,3.94,10.2,10.2,0,0,1-1.42,5.51,11.57,11.57,0,0,1-3.68,3.72,16.13,16.13,0,0,1-5.06,2.06,25.85,25.85,0,0,1-5.66.64,28.87,28.87,0,0,1-6.23-.64,13.14,13.14,0,0,1-4.91-2.14,10.36,10.36,0,0,1-3.26-4,14.5,14.5,0,0,1-1.2-6.26h6.3a6.48,6.48,0,0,0,.63,3.56,6.08,6.08,0,0,0,2.18,2.32,9.61,9.61,0,0,0,3.22,1.24,19.39,19.39,0,0,0,3.87.38,16.8,16.8,0,0,0,3.15-.3,9.28,9.28,0,0,0,2.85-1,6.08,6.08,0,0,0,2.06-1.83,4.77,4.77,0,0,0,.79-2.78,3.56,3.56,0,0,0-.9-2.44,9.46,9.46,0,0,0-2.33-1.83,23.08,23.08,0,0,0-3.26-1.54c-1.23-.48-2.46-1-3.71-1.54s-2.57-1.05-3.79-1.65a15.48,15.48,0,0,1-3.3-2.14,9.48,9.48,0,0,1-2.33-2.88,8.22,8.22,0,0,1-.86-3.83,9.23,9.23,0,0,1,1.24-4.8,10.87,10.87,0,0,1,3.26-3.49,16.12,16.12,0,0,1,4.61-2.13,18.94,18.94,0,0,1,5.29-.75,22.78,22.78,0,0,1,5.33.63,13.65,13.65,0,0,1,4.68,2.1,11,11,0,0,1,3.34,3.83,11.93,11.93,0,0,1,1.28,5.74h-6.38A5.38,5.38,0,0,0,502,185.75Z"/><path class="cls-1" d="M538,179.34,536.8,185h-7.72l-4.8,22.8c0,.45-.1.88-.15,1.28a10.18,10.18,0,0,0-.08,1.27,2.08,2.08,0,0,0,1.16,2.06,6,6,0,0,0,2.67.57,9.48,9.48,0,0,0,1.87-.19,17.19,17.19,0,0,0,1.8-.49l-1.12,5.85c-.75.1-1.5.19-2.25.26a21.2,21.2,0,0,1-2.25.12,20,20,0,0,1-3.38-.27,7.61,7.61,0,0,1-2.74-1,5.52,5.52,0,0,1-1.87-1.91,5.93,5.93,0,0,1-.71-3.08,9.92,9.92,0,0,1,.11-1.57c.07-.5.16-1.05.26-1.65L522.7,185h-6.52l1.2-5.62h6.52l2.4-11.48h6.38l-2.4,11.48Z"/><path class="cls-1" d="M544.45,204a9.19,9.19,0,0,0,.83,4,8,8,0,0,0,2.25,2.93,10.79,10.79,0,0,0,3.22,1.8,11.28,11.28,0,0,0,3.75.64,12.12,12.12,0,0,0,7-1.92,11.25,11.25,0,0,0,4.13-5.51h6.37a16.72,16.72,0,0,1-2.4,5.66,15.16,15.16,0,0,1-4,4,17.5,17.5,0,0,1-5.18,2.44,21.47,21.47,0,0,1-6,.83,19.1,19.1,0,0,1-8-1.47,13.82,13.82,0,0,1-5.06-3.75,13.3,13.3,0,0,1-2.62-5,19.63,19.63,0,0,1-.75-5.29,30.46,30.46,0,0,1,1.61-10.16,25.1,25.1,0,0,1,4.35-7.91,19.42,19.42,0,0,1,6.37-5.1,17,17,0,0,1,7.62-1.8q8.55,0,12.48,4.5t3.94,12.67a17.34,17.34,0,0,1-.22,2.85c-.15.9-.28,1.63-.38,2.18H544.68A24.88,24.88,0,0,0,544.45,204Zm23.36-13a9.17,9.17,0,0,0-1.5-3.53,7.9,7.9,0,0,0-2.88-2.47,9.45,9.45,0,0,0-4.43-.94,13.78,13.78,0,0,0-5,.86,12.5,12.5,0,0,0-3.86,2.37,14.06,14.06,0,0,0-2.78,3.48,20.68,20.68,0,0,0-1.79,4.24h22.5A14.2,14.2,0,0,0,567.81,191Z"/><path class="cls-1" d="M591.32,179.34l-1.87,8.32h.15a21.18,21.18,0,0,1,5.74-6.6,13.49,13.49,0,0,1,8.36-2.62,7.87,7.87,0,0,0,1.12-.08,3,3,0,0,1,1.13.08l-1.5,6.82a4.6,4.6,0,0,0-1-.07h-.9q-1.2,0-2,0a9.73,9.73,0,0,0-1.87.34,12.38,12.38,0,0,0-4.69,2.33,16.56,16.56,0,0,0-3.56,4,15.72,15.72,0,0,0-2,4.39c-.5,1.67-.9,3.24-1.2,4.69l-3.67,17.17h-6.3l8-38.77Z"/><path class="cls-1" d="M642.4,164.56l-4.88,23h28.05l4.8-23h7.13l-11.25,53.55h-7.13l5.18-24.52h-28l-5.18,24.52H624l11.25-53.55Z"/><path class="cls-1" d="M691.67,179.34l-8.1,38.77h-6.3l8-38.77Zm-4.95-7,1.65-7.8h6.45l-1.65,7.8Z"/><path class="cls-1" d="M711.47,164.56l-11.25,53.55h-6.3l11.18-53.55Z"/><path class="cls-1" d="M728.12,164.56l-11.25,53.55h-6.3l11.18-53.55Z"/><path class="cls-1" d="M767.87,164.56,787,208.89h.15l8.93-44.33H803l-11.33,53.55H784l-19-44h-.15l-9.08,44h-6.9l11.33-53.55Z"/><path class="cls-1" d="M808.48,185.45a14.24,14.24,0,0,1,3.79-3.94,15.83,15.83,0,0,1,5.1-2.32,23.15,23.15,0,0,1,5.92-.75,31.06,31.06,0,0,1,5.4.45,13.69,13.69,0,0,1,4.5,1.57,8.66,8.66,0,0,1,3.12,3,9.22,9.22,0,0,1,1.16,4.84,17.3,17.3,0,0,1-.41,3.56c-.28,1.27-.54,2.44-.79,3.49L833.79,206q-.22,1.2-.63,2.7a10.58,10.58,0,0,0-.42,2.85,2.64,2.64,0,0,0,.53,1.88,1.82,1.82,0,0,0,1.35.52,3.07,3.07,0,0,0,1-.19l1-.33-1,4.72a12.51,12.51,0,0,1-1.91.56,9.06,9.06,0,0,1-2,.27,5.23,5.23,0,0,1-4-1.43,4.69,4.69,0,0,1-1-4l-.15-.15a13.35,13.35,0,0,1-5,4.12,18.69,18.69,0,0,1-8,1.43,17.8,17.8,0,0,1-4.61-.57,9.06,9.06,0,0,1-6.23-5.25,12.26,12.26,0,0,1-.94-5.06,10.77,10.77,0,0,1,1.84-6.67,11.63,11.63,0,0,1,4.69-3.64,23.14,23.14,0,0,1,6.3-1.69q3.45-.45,6.67-.75c1.7-.15,3.17-.31,4.39-.49a9.83,9.83,0,0,0,3-.86,3.77,3.77,0,0,0,1.76-1.72,6.92,6.92,0,0,0,.56-3.08,4.07,4.07,0,0,0-.75-2.55,5.39,5.39,0,0,0-1.87-1.54,8.88,8.88,0,0,0-2.51-.78,16.81,16.81,0,0,0-2.67-.23,17.09,17.09,0,0,0-3.56.38,10.38,10.38,0,0,0-3.19,1.23,8.35,8.35,0,0,0-2.4,2.18,7.13,7.13,0,0,0-1.27,3.19h-6.38A13.59,13.59,0,0,1,808.48,185.45Zm1.8,26.59a8.89,8.89,0,0,0,4.84,1.35q7.57,0,10.87-5.1a12.57,12.57,0,0,0,2.14-4.73q.57-2.55,1.24-5.25h-.15a8.76,8.76,0,0,1-3.41,1.39c-1.38.27-2.84.49-4.39.64s-3.11.33-4.69.56a18.24,18.24,0,0,0-4.24,1.09,7.84,7.84,0,0,0-3.07,2.13,6,6,0,0,0-1.28,3.87A4.49,4.49,0,0,0,810.28,212Z"/><path class="cls-1" d="M865.74,179.34l-1.2,5.62h-7.72l-4.8,22.8c0,.45-.1.88-.15,1.28a10.18,10.18,0,0,0-.08,1.27,2.07,2.07,0,0,0,1.17,2.06,6,6,0,0,0,2.66.57,9.48,9.48,0,0,0,1.87-.19,17.19,17.19,0,0,0,1.8-.49l-1.12,5.85c-.75.1-1.5.19-2.25.26a21.2,21.2,0,0,1-2.25.12,20,20,0,0,1-3.38-.27,7.49,7.49,0,0,1-2.73-1,5.54,5.54,0,0,1-1.88-1.91,6,6,0,0,1-.71-3.08,11.27,11.27,0,0,1,.11-1.57c.08-.5.16-1.05.26-1.65l5.1-24.08h-6.52l1.2-5.62h6.52l2.4-11.48h6.38L858,179.34Z"/><path class="cls-1" d="M879.17,179.34l-8.1,38.77h-6.3l8-38.77Zm-4.95-7,1.65-7.8h6.45l-1.65,7.8Z"/><path class="cls-1" d="M884.45,193.66a23.64,23.64,0,0,1,4.28-7.8,21.21,21.21,0,0,1,6.82-5.4,20,20,0,0,1,9.12-2q7.88,0,12,4.08t4.12,12a29.66,29.66,0,0,1-1.42,9.15,23.82,23.82,0,0,1-4.2,7.83,20.66,20.66,0,0,1-6.75,5.44,19.74,19.74,0,0,1-9.08,2,18.72,18.72,0,0,1-6.86-1.2,14.21,14.21,0,0,1-8.36-8.44,18.17,18.17,0,0,1-1.13-6.49A29.11,29.11,0,0,1,884.45,193.66Zm7.62,16.8q2.7,2.92,7.95,2.93a10.75,10.75,0,0,0,6.18-1.8,16.48,16.48,0,0,0,4.5-4.54,21.36,21.36,0,0,0,2.78-6,22,22,0,0,0,.94-6.08,14.94,14.94,0,0,0-.6-4.27,8.95,8.95,0,0,0-5.07-5.82,11,11,0,0,0-4.53-.86,11.59,11.59,0,0,0-6.45,1.8,16.35,16.35,0,0,0-4.65,4.54,20.63,20.63,0,0,0-2.82,6,23.23,23.23,0,0,0-.93,6.3A10.93,10.93,0,0,0,892.07,210.46Z"/><path class="cls-1" d="M938.72,179.34l-1.2,5.85h.15a15.11,15.11,0,0,1,6.07-5.07,18.39,18.39,0,0,1,7.73-1.68c3.64,0,6.36.8,8.13,2.4s2.67,4.12,2.67,7.57a25.11,25.11,0,0,1-.3,3.3c-.2,1.35-.48,2.78-.83,4.28l-4.72,22.12H950l5-22.65c0-.4.12-.86.23-1.39s.19-1.07.3-1.65.18-1.12.26-1.65a10.28,10.28,0,0,0,.11-1.31,4.59,4.59,0,0,0-1.95-4.09,8.44,8.44,0,0,0-4.8-1.31,11.67,11.67,0,0,0-5.21,1.28,14.73,14.73,0,0,0-4.39,3.22,10.53,10.53,0,0,0-2.7,3.64,25.89,25.89,0,0,0-1.57,4.46l-4.5,21.45h-6.3l8.09-38.77Z"/><path class="cls-1" d="M972.43,185.45a14.1,14.1,0,0,1,3.79-3.94,15.77,15.77,0,0,1,5.09-2.32,23.28,23.28,0,0,1,5.93-.75,31.06,31.06,0,0,1,5.4.45,13.69,13.69,0,0,1,4.5,1.57,8.55,8.55,0,0,1,3.11,3,9.13,9.13,0,0,1,1.17,4.84,16.68,16.68,0,0,1-.42,3.56c-.27,1.27-.53,2.44-.78,3.49L997.74,206c-.15.8-.36,1.7-.64,2.7a11,11,0,0,0-.41,2.85,2.59,2.59,0,0,0,.53,1.88,1.79,1.79,0,0,0,1.34.52,3.13,3.13,0,0,0,1-.19l1-.33-1,4.72a12.68,12.68,0,0,1-1.92.56,8.91,8.91,0,0,1-2,.27,5.22,5.22,0,0,1-4-1.43,4.69,4.69,0,0,1-1-4l-.15-.15a13.42,13.42,0,0,1-5,4.12,18.71,18.71,0,0,1-8,1.43,17.91,17.91,0,0,1-4.61-.57,9.5,9.5,0,0,1-3.71-1.87,9.3,9.3,0,0,1-2.51-3.38,12.1,12.1,0,0,1-.94-5.06,10.71,10.71,0,0,1,1.84-6.67,11.53,11.53,0,0,1,4.68-3.64,23.21,23.21,0,0,1,6.31-1.69c2.29-.3,4.52-.55,6.67-.75,1.7-.15,3.16-.31,4.39-.49a10,10,0,0,0,3-.86,3.86,3.86,0,0,0,1.76-1.72,7.06,7.06,0,0,0,.56-3.08,4.07,4.07,0,0,0-.75-2.55,5.39,5.39,0,0,0-1.87-1.54,8.85,8.85,0,0,0-2.52-.78,16.59,16.59,0,0,0-2.66-.23,17,17,0,0,0-3.56.38,10.28,10.28,0,0,0-3.19,1.23,8.35,8.35,0,0,0-2.4,2.18,7.14,7.14,0,0,0-1.28,3.19h-6.37A13.45,13.45,0,0,1,972.43,185.45Zm1.8,26.59a8.85,8.85,0,0,0,4.83,1.35q7.58,0,10.88-5.1a12.73,12.73,0,0,0,2.14-4.73c.37-1.7.79-3.45,1.23-5.25h-.14a8.74,8.74,0,0,1-3.42,1.39c-1.37.27-2.84.49-4.38.64s-3.12.33-4.69.56a18.11,18.11,0,0,0-4.24,1.09,7.77,7.77,0,0,0-3.07,2.13,6,6,0,0,0-1.28,3.87A4.47,4.47,0,0,0,974.23,212Z"/><path class="cls-1" d="M1022.64,164.56l-11.25,53.55h-6.3l11.18-53.55Z"/><path class="cls-1" d="M1084.48,214.17q-5.89,5.15-15.79,5.14-11,0-17-6.11t-6-17.29a37.86,37.86,0,0,1,2-12.41,32.13,32.13,0,0,1,5.82-10.39,27.51,27.51,0,0,1,21.56-9.82,26.66,26.66,0,0,1,8.06,1.16,18.43,18.43,0,0,1,6.45,3.45,15.87,15.87,0,0,1,4.31,5.77,19.64,19.64,0,0,1,1.58,8.14h-7.13q0-6.3-3.71-9.41a14.34,14.34,0,0,0-9.56-3.11,19.47,19.47,0,0,0-9.79,2.36,22.07,22.07,0,0,0-6.94,6.11,26.89,26.89,0,0,0-4.16,8.51,34.16,34.16,0,0,0-1.39,9.64,24.58,24.58,0,0,0,1,7.13,15.14,15.14,0,0,0,2.92,5.51,13.23,13.23,0,0,0,4.92,3.56,17.62,17.62,0,0,0,7,1.28q6.6,0,10.72-3.49a19,19,0,0,0,5.85-9.86h7.13Q1090.36,209,1084.48,214.17Z"/><path class="cls-1" d="M1104.16,204a9.33,9.33,0,0,0,.83,4,8.21,8.21,0,0,0,2.25,2.93,10.91,10.91,0,0,0,3.22,1.8,11.28,11.28,0,0,0,3.75.64,12.12,12.12,0,0,0,7-1.92,11.25,11.25,0,0,0,4.13-5.51h6.37a16.72,16.72,0,0,1-2.4,5.66,15.16,15.16,0,0,1-4,4,17.5,17.5,0,0,1-5.18,2.44,21.47,21.47,0,0,1-6,.83,19.1,19.1,0,0,1-8-1.47,13.82,13.82,0,0,1-5.06-3.75,13.45,13.45,0,0,1-2.62-5,20,20,0,0,1-.75-5.29,30.46,30.46,0,0,1,1.61-10.16,25.1,25.1,0,0,1,4.35-7.91,19.42,19.42,0,0,1,6.37-5.1,17,17,0,0,1,7.62-1.8q8.55,0,12.48,4.5t3.94,12.67a17.34,17.34,0,0,1-.22,2.85c-.15.9-.28,1.63-.38,2.18h-29.17A24.88,24.88,0,0,0,1104.16,204Zm23.36-13a9.17,9.17,0,0,0-1.5-3.53,7.9,7.9,0,0,0-2.88-2.47,9.45,9.45,0,0,0-4.43-.94,13.78,13.78,0,0,0-5,.86,12.5,12.5,0,0,0-3.86,2.37,14,14,0,0,0-2.77,3.48,20.71,20.71,0,0,0-1.8,4.24h22.5A14.2,14.2,0,0,0,1127.52,191Z"/><path class="cls-1" d="M1151.26,179.34l-1.2,5.85h.15a15.14,15.14,0,0,1,6.08-5.07,18.31,18.31,0,0,1,7.72-1.68q5.48,0,8.14,2.4t2.66,7.57a23.49,23.49,0,0,1-.3,3.3c-.2,1.35-.47,2.78-.82,4.28L1169,218.11h-6.37l5-22.65c0-.4.12-.86.22-1.39s.2-1.07.3-1.65.19-1.12.26-1.65a8.91,8.91,0,0,0,.12-1.31,4.59,4.59,0,0,0-2-4.09,8.46,8.46,0,0,0-4.8-1.31,11.71,11.71,0,0,0-5.22,1.28,14.81,14.81,0,0,0-4.38,3.22,10.41,10.41,0,0,0-2.7,3.64,26.79,26.79,0,0,0-1.58,4.46l-4.5,21.45H1137l8.1-38.77Z"/><path class="cls-1" d="M1203.31,179.34l-1.2,5.62h-7.72l-4.8,22.8c0,.45-.1.88-.15,1.28a10.18,10.18,0,0,0-.08,1.27,2.08,2.08,0,0,0,1.16,2.06,6,6,0,0,0,2.67.57,9.48,9.48,0,0,0,1.87-.19,17.19,17.19,0,0,0,1.8-.49l-1.12,5.85c-.75.1-1.5.19-2.25.26a21.2,21.2,0,0,1-2.25.12,20,20,0,0,1-3.38-.27,7.61,7.61,0,0,1-2.74-1,5.52,5.52,0,0,1-1.87-1.91,5.93,5.93,0,0,1-.71-3.08,9.92,9.92,0,0,1,.11-1.57c.07-.5.16-1.05.26-1.65L1188,185h-6.52l1.2-5.62h6.52l2.4-11.48H1198l-2.4,11.48Z"/><path class="cls-1" d="M1209.76,204a9.19,9.19,0,0,0,.83,4,8.21,8.21,0,0,0,2.25,2.93,10.79,10.79,0,0,0,3.22,1.8,11.28,11.28,0,0,0,3.75.64,12.12,12.12,0,0,0,7-1.92A11.17,11.17,0,0,0,1231,206h6.38a16.72,16.72,0,0,1-2.4,5.66,15.2,15.2,0,0,1-4,4,17.44,17.44,0,0,1-5.17,2.44,21.47,21.47,0,0,1-6,.83,19.1,19.1,0,0,1-8-1.47,13.82,13.82,0,0,1-5.06-3.75,13.3,13.3,0,0,1-2.62-5,20,20,0,0,1-.75-5.29,30.46,30.46,0,0,1,1.61-10.16,25.1,25.1,0,0,1,4.35-7.91,19.42,19.42,0,0,1,6.37-5.1,17,17,0,0,1,7.62-1.8q8.55,0,12.48,4.5t3.94,12.67a18.51,18.51,0,0,1-.22,2.85c-.15.9-.28,1.63-.38,2.18H1210A26.62,26.62,0,0,0,1209.76,204Zm23.36-13a9.17,9.17,0,0,0-1.5-3.53,7.93,7.93,0,0,0-2.89-2.47,9.38,9.38,0,0,0-4.42-.94,13.78,13.78,0,0,0-5,.86,12.5,12.5,0,0,0-3.86,2.37,14.06,14.06,0,0,0-2.78,3.48,20.68,20.68,0,0,0-1.79,4.24h22.5A14.58,14.58,0,0,0,1233.12,191Z"/><path class="cls-1" d="M1256.63,179.34l-1.87,8.32h.15a21.18,21.18,0,0,1,5.74-6.6,13.49,13.49,0,0,1,8.36-2.62,7.87,7.87,0,0,0,1.12-.08,3,3,0,0,1,1.13.08l-1.5,6.82a4.6,4.6,0,0,0-1-.07h-.9q-1.2,0-2,0a9.73,9.73,0,0,0-1.87.34,12.38,12.38,0,0,0-4.69,2.33,16.56,16.56,0,0,0-3.56,4,15.72,15.72,0,0,0-2,4.39c-.5,1.67-.9,3.24-1.2,4.69l-3.67,17.17h-6.3l8-38.77Z"/><path class="cls-1" d="M1291.06,185l1.12-5.62h6.6c.5-2,1-3.85,1.39-5.7a18.7,18.7,0,0,1,1.84-4.92,9.43,9.43,0,0,1,3.34-3.45,11.43,11.43,0,0,1,6-1.31c.9,0,1.8,0,2.7.11a13.47,13.47,0,0,1,2.62.49l-1.05,5.4c-.55-.1-1.07-.19-1.57-.26a9,9,0,0,0-1.43-.11,6.35,6.35,0,0,0-3.6.86,5.82,5.82,0,0,0-2,2.25,11.28,11.28,0,0,0-1,3.11c-.23,1.15-.52,2.33-.87,3.53h7.43l-1,5.62H1304l-7.13,33.15h-6.37l7.2-33.15Z"/><path class="cls-1" d="M1313.67,193.66a23.64,23.64,0,0,1,4.28-7.8,21.21,21.21,0,0,1,6.82-5.4,19.92,19.92,0,0,1,9.11-2q7.88,0,12,4.08t4.13,12a29.67,29.67,0,0,1-1.43,9.15,23.82,23.82,0,0,1-4.2,7.83,20.66,20.66,0,0,1-6.75,5.44,19.69,19.69,0,0,1-9.07,2,18.72,18.72,0,0,1-6.86-1.2,14.26,14.26,0,0,1-8.37-8.44,18.17,18.17,0,0,1-1.12-6.49A29.11,29.11,0,0,1,1313.67,193.66Zm7.61,16.8q2.7,2.92,8,2.93a10.8,10.8,0,0,0,6.19-1.8,16.76,16.76,0,0,0,4.5-4.54,21.64,21.64,0,0,0,2.78-6,22,22,0,0,0,.93-6.08,14.94,14.94,0,0,0-.6-4.27,8.9,8.9,0,0,0-5.06-5.82,11,11,0,0,0-4.54-.86,11.59,11.59,0,0,0-6.45,1.8,16.35,16.35,0,0,0-4.65,4.54,20.36,20.36,0,0,0-2.81,6,22.87,22.87,0,0,0-.94,6.3A10.93,10.93,0,0,0,1321.28,210.46Z"/><path class="cls-1" d="M1367.71,179.34l-1.88,8.32h.15a21.18,21.18,0,0,1,5.74-6.6,13.49,13.49,0,0,1,8.36-2.62,8,8,0,0,0,1.13-.08,2.9,2.9,0,0,1,1.12.08l-1.5,6.82a4.49,4.49,0,0,0-1-.07h-.9q-1.2,0-2,0a9.82,9.82,0,0,0-1.88.34,12.38,12.38,0,0,0-4.69,2.33,16.56,16.56,0,0,0-3.56,4,15.71,15.71,0,0,0-2,4.39c-.5,1.67-.9,3.24-1.2,4.69L1360,218.11h-6.3l8-38.77Z"/><path class="cls-1" d="M1433,164.56q7.88,0,11.4,3.38t3.53,9.45a14.08,14.08,0,0,1-2.74,8.28,12.49,12.49,0,0,1-3.19,3,10.55,10.55,0,0,1-4.27,1.62v.15a10.83,10.83,0,0,1,5.85,3.93,11.59,11.59,0,0,1,2.17,7.17,15.94,15.94,0,0,1-1.46,6.9,15.23,15.23,0,0,1-4,5.21,19.06,19.06,0,0,1-6,3.3,23.21,23.21,0,0,1-7.42,1.16h-26.48l11.18-53.55Zm-7.35,47.55a31.91,31.91,0,0,0,3.53-.26,12.71,12.71,0,0,0,4.27-1.35,10.58,10.58,0,0,0,3.64-3.19,9.62,9.62,0,0,0,1.54-5.77,8.29,8.29,0,0,0-.9-4.13,6.12,6.12,0,0,0-2.44-2.4,10.84,10.84,0,0,0-3.53-1.12,27.79,27.79,0,0,0-4.16-.3h-15.3l-3.9,18.52Zm3.75-24.52q11.4,0,11.4-10.2a6.17,6.17,0,0,0-1-3.75,6.31,6.31,0,0,0-2.59-2,11.47,11.47,0,0,0-3.41-.86,33.17,33.17,0,0,0-3.49-.19h-13.2l-3.6,17Z"/><path class="cls-1" d="M1465.28,179.34l-8.1,38.77h-6.3l8-38.77Zm-5-7,1.65-7.8h6.45l-1.65,7.8Z"/><path class="cls-1" d="M1470.57,193.66a23.62,23.62,0,0,1,4.27-7.8,21.24,21.24,0,0,1,6.83-5.4,19.92,19.92,0,0,1,9.11-2q7.88,0,12,4.08t4.12,12a29.66,29.66,0,0,1-1.42,9.15,23.82,23.82,0,0,1-4.2,7.83,20.66,20.66,0,0,1-6.75,5.44,19.74,19.74,0,0,1-9.08,2,18.76,18.76,0,0,1-6.86-1.2,14.21,14.21,0,0,1-8.36-8.44,18.17,18.17,0,0,1-1.13-6.49A28.83,28.83,0,0,1,1470.57,193.66Zm7.61,16.8q2.7,2.92,8,2.93a10.8,10.8,0,0,0,6.19-1.8,16.76,16.76,0,0,0,4.5-4.54,21.33,21.33,0,0,0,2.77-6,21.66,21.66,0,0,0,.94-6.08,14.94,14.94,0,0,0-.6-4.27,9,9,0,0,0-5.06-5.82,11.08,11.08,0,0,0-4.54-.86,11.59,11.59,0,0,0-6.45,1.8,16.35,16.35,0,0,0-4.65,4.54,20.36,20.36,0,0,0-2.81,6,22.87,22.87,0,0,0-.94,6.3A10.93,10.93,0,0,0,1478.18,210.46Z"/><path class="cls-1" d="M1524.68,179.34l-1.43,5.77.15.15a18.49,18.49,0,0,1,6-5,15.93,15.93,0,0,1,7.53-1.83,12,12,0,0,1,6.3,1.57,7.83,7.83,0,0,1,3.45,5.4,16.69,16.69,0,0,1,5.82-5.06,15.48,15.48,0,0,1,7.46-1.91,16.53,16.53,0,0,1,4,.48,11.45,11.45,0,0,1,3.49,1.5,7.37,7.37,0,0,1,2.44,2.67,8.36,8.36,0,0,1,.9,4,23.25,23.25,0,0,1-.38,3.9c-.25,1.45-.5,2.72-.75,3.82l-4.87,23.25h-6.38l5.4-24.6c.15-.6.29-1.31.42-2.14a14.71,14.71,0,0,0,.18-2.06,4.82,4.82,0,0,0-1.68-3.75,6.16,6.16,0,0,0-4.24-1.5,8.88,8.88,0,0,0-2.74.45,15.31,15.31,0,0,0-2.66,1.16,15,15,0,0,0-4.35,3.72,11,11,0,0,0-2.33,4,43.53,43.53,0,0,0-1.27,4.73l-4.28,20h-6.37l4.65-22.12c.35-1.5.64-2.9.86-4.2a18.51,18.51,0,0,0,.34-2.63,5,5,0,0,0-1.39-3.75,5.51,5.51,0,0,0-4-1.35,10.28,10.28,0,0,0-5.21,1.5,17.17,17.17,0,0,0-4.32,3.45,10.93,10.93,0,0,0-2.77,3.94,33.21,33.21,0,0,0-1.35,4.84l-4.35,20.32h-6.3l8.17-38.77Z"/><path class="cls-1" d="M1581.9,204a9.33,9.33,0,0,0,.83,4A8.21,8.21,0,0,0,1585,211a10.91,10.91,0,0,0,3.22,1.8,11.28,11.28,0,0,0,3.75.64,12.12,12.12,0,0,0,7-1.92,11.25,11.25,0,0,0,4.13-5.51h6.37a16.72,16.72,0,0,1-2.4,5.66,15.16,15.16,0,0,1-4,4,17.5,17.5,0,0,1-5.18,2.44,21.47,21.47,0,0,1-6,.83,19,19,0,0,1-8-1.47,13.77,13.77,0,0,1-5.07-3.75,13.45,13.45,0,0,1-2.62-5,20,20,0,0,1-.75-5.29,30.46,30.46,0,0,1,1.61-10.16,25.3,25.3,0,0,1,4.35-7.91,19.35,19.35,0,0,1,6.38-5.1,16.93,16.93,0,0,1,7.61-1.8q8.55,0,12.49,4.5t3.93,12.67a17.34,17.34,0,0,1-.22,2.85c-.15.9-.28,1.63-.38,2.18h-29.17A24.88,24.88,0,0,0,1581.9,204Zm23.37-13a9.48,9.48,0,0,0-1.5-3.53,8,8,0,0,0-2.89-2.47,9.45,9.45,0,0,0-4.43-.94,13.69,13.69,0,0,0-5,.86,12.43,12.43,0,0,0-3.87,2.37,14,14,0,0,0-2.77,3.48A20.71,20.71,0,0,0,1583,195h22.5A14.57,14.57,0,0,0,1605.27,191Z"/><path class="cls-1" d="M1643.18,218.11l1.35-5.55h-.15a15.33,15.33,0,0,1-5.89,5.06,17.28,17.28,0,0,1-6.94,1.32,17,17,0,0,1-6.52-1.17,13.53,13.53,0,0,1-4.8-3.22,13.3,13.3,0,0,1-2.93-5,20.3,20.3,0,0,1-1-6.45,27.54,27.54,0,0,1,1.46-8.81,26.33,26.33,0,0,1,4.2-7.91,21.55,21.55,0,0,1,6.75-5.74,18.48,18.48,0,0,1,9.11-2.21,21.23,21.23,0,0,1,3.68.33,14.49,14.49,0,0,1,3.56,1.13,9.84,9.84,0,0,1,3,2.1,7.91,7.91,0,0,1,1.88,3.26h.15l4.12-20.7h6.3l-11.32,53.55Zm-18.12-7.5q2.37,2.77,7.62,2.78a11.48,11.48,0,0,0,6.45-1.88,16.85,16.85,0,0,0,4.76-4.72,22.77,22.77,0,0,0,2.92-6.27,22.4,22.4,0,0,0,1-6.41,10.47,10.47,0,0,0-2.52-7.2q-2.5-2.85-7.23-2.85a12.49,12.49,0,0,0-6.68,1.76,16.35,16.35,0,0,0-4.8,4.54,20.5,20.5,0,0,0-2.92,6.15,23.73,23.73,0,0,0-1,6.6A11.21,11.21,0,0,0,1625.06,210.61Z"/><path class="cls-1" d="M1673.63,179.34l-8.1,38.77h-6.3l8-38.77Zm-5-7,1.65-7.8h6.45l-1.65,7.8Z"/><path class="cls-1" d="M1705.2,186.05a8.54,8.54,0,0,0-6-2,12.6,12.6,0,0,0-6.49,1.65A15.46,15.46,0,0,0,1688,190a19.2,19.2,0,0,0-2.89,5.88,22.41,22.41,0,0,0-1,6.42,18.44,18.44,0,0,0,.49,4.27,9.61,9.61,0,0,0,1.61,3.53,8,8,0,0,0,3,2.4,10.21,10.21,0,0,0,4.53.9,11.49,11.49,0,0,0,7-2.18,12.47,12.47,0,0,0,4.28-5.77h6.37a17.68,17.68,0,0,1-6.3,10.05,18.39,18.39,0,0,1-11.4,3.45q-8,0-12-4.35t-4-12.3a28.61,28.61,0,0,1,1.39-8.93,23.07,23.07,0,0,1,4.12-7.61,19.9,19.9,0,0,1,15.94-7.31q6.6,0,10.46,3.18t4.09,10h-6.38A7.18,7.18,0,0,0,1705.2,186.05Z"/><path class="cls-1" d="M1722.41,185.45a14.1,14.1,0,0,1,3.79-3.94,15.83,15.83,0,0,1,5.1-2.32,23.15,23.15,0,0,1,5.92-.75,31.06,31.06,0,0,1,5.4.45,13.69,13.69,0,0,1,4.5,1.57,8.66,8.66,0,0,1,3.12,3,9.22,9.22,0,0,1,1.16,4.84,17.3,17.3,0,0,1-.41,3.56c-.28,1.27-.54,2.44-.79,3.49L1747.72,206q-.23,1.2-.63,2.7a10.58,10.58,0,0,0-.42,2.85,2.64,2.64,0,0,0,.53,1.88,1.82,1.82,0,0,0,1.35.52,3.07,3.07,0,0,0,1-.19l1-.33-1,4.72a12.51,12.51,0,0,1-1.91.56,9.06,9.06,0,0,1-2,.27,5.23,5.23,0,0,1-4-1.43,4.69,4.69,0,0,1-1-4l-.15-.15a13.35,13.35,0,0,1-5,4.12,18.69,18.69,0,0,1-8,1.43,17.8,17.8,0,0,1-4.61-.57,9.06,9.06,0,0,1-6.23-5.25,12.26,12.26,0,0,1-.94-5.06,10.77,10.77,0,0,1,1.84-6.67,11.63,11.63,0,0,1,4.69-3.64,23.14,23.14,0,0,1,6.3-1.69q3.45-.45,6.67-.75c1.7-.15,3.16-.31,4.39-.49a9.83,9.83,0,0,0,3-.86,3.77,3.77,0,0,0,1.76-1.72,6.92,6.92,0,0,0,.56-3.08,4.07,4.07,0,0,0-.75-2.55,5.39,5.39,0,0,0-1.87-1.54,8.88,8.88,0,0,0-2.51-.78,16.81,16.81,0,0,0-2.67-.23,17.09,17.09,0,0,0-3.56.38,10.38,10.38,0,0,0-3.19,1.23,8.35,8.35,0,0,0-2.4,2.18,7.13,7.13,0,0,0-1.27,3.19h-6.38A13.59,13.59,0,0,1,1722.41,185.45Zm1.8,26.59a8.89,8.89,0,0,0,4.84,1.35q7.58,0,10.87-5.1a12.57,12.57,0,0,0,2.14-4.73q.57-2.55,1.24-5.25h-.15a8.76,8.76,0,0,1-3.41,1.39c-1.38.27-2.84.49-4.39.64s-3.11.33-4.69.56a18.24,18.24,0,0,0-4.24,1.09,7.84,7.84,0,0,0-3.07,2.13,6,6,0,0,0-1.28,3.87A4.49,4.49,0,0,0,1724.21,212Z"/><path class="cls-1" d="M1772.62,164.56l-11.25,53.55h-6.3l11.18-53.55Z"/><path class="cls-1" d="M1834.46,214.17q-5.89,5.15-15.79,5.14-11,0-17-6.11t-6-17.29a37.86,37.86,0,0,1,2-12.41,32.11,32.11,0,0,1,5.81-10.39,27.51,27.51,0,0,1,21.56-9.82,26.66,26.66,0,0,1,8.06,1.16,18.35,18.35,0,0,1,6.45,3.45,15.89,15.89,0,0,1,4.32,5.77,19.64,19.64,0,0,1,1.57,8.14h-7.12q0-6.3-3.72-9.41a14.34,14.34,0,0,0-9.56-3.11,19.47,19.47,0,0,0-9.79,2.36,22,22,0,0,0-6.93,6.11,26.91,26.91,0,0,0-4.17,8.51,34.51,34.51,0,0,0-1.38,9.64,24.59,24.59,0,0,0,1,7.13,15.16,15.16,0,0,0,2.93,5.51,13.19,13.19,0,0,0,4.91,3.56,17.62,17.62,0,0,0,7,1.28q6.6,0,10.73-3.49a19,19,0,0,0,5.85-9.86h7.12Q1840.35,209,1834.46,214.17Z"/><path class="cls-1" d="M1849.76,193.66a23.62,23.62,0,0,1,4.27-7.8,21.24,21.24,0,0,1,6.83-5.4,19.92,19.92,0,0,1,9.11-2q7.88,0,12,4.08t4.13,12a29.67,29.67,0,0,1-1.43,9.15,23.82,23.82,0,0,1-4.2,7.83,20.66,20.66,0,0,1-6.75,5.44,19.74,19.74,0,0,1-9.08,2,18.8,18.8,0,0,1-6.86-1.2,14.21,14.21,0,0,1-8.36-8.44,18.17,18.17,0,0,1-1.12-6.49A28.83,28.83,0,0,1,1849.76,193.66Zm7.61,16.8q2.7,2.92,8,2.93a10.8,10.8,0,0,0,6.19-1.8,16.76,16.76,0,0,0,4.5-4.54,21.33,21.33,0,0,0,2.77-6,21.66,21.66,0,0,0,.94-6.08,14.94,14.94,0,0,0-.6-4.27,9,9,0,0,0-5.06-5.82,11.08,11.08,0,0,0-4.54-.86,11.59,11.59,0,0,0-6.45,1.8,16.35,16.35,0,0,0-4.65,4.54,20.36,20.36,0,0,0-2.81,6,22.87,22.87,0,0,0-.94,6.3A10.93,10.93,0,0,0,1857.37,210.46Z"/><path class="cls-1" d="M1903.87,179.34l-1.43,5.77.15.15a18.49,18.49,0,0,1,6-5,15.93,15.93,0,0,1,7.53-1.83,12,12,0,0,1,6.3,1.57,7.83,7.83,0,0,1,3.45,5.4,16.69,16.69,0,0,1,5.82-5.06,15.48,15.48,0,0,1,7.46-1.91,16.53,16.53,0,0,1,4,.48,11.45,11.45,0,0,1,3.49,1.5,7.37,7.37,0,0,1,2.44,2.67,8.36,8.36,0,0,1,.9,4,23.25,23.25,0,0,1-.38,3.9c-.25,1.45-.5,2.72-.75,3.82l-4.87,23.25h-6.38l5.4-24.6c.15-.6.29-1.31.42-2.14a14.71,14.71,0,0,0,.18-2.06,4.82,4.82,0,0,0-1.68-3.75,6.16,6.16,0,0,0-4.24-1.5,8.88,8.88,0,0,0-2.74.45,15.31,15.31,0,0,0-2.66,1.16,15,15,0,0,0-4.35,3.72,11,11,0,0,0-2.33,4,43.53,43.53,0,0,0-1.27,4.73l-4.28,20h-6.37l4.65-22.12c.35-1.5.64-2.9.86-4.2a18.51,18.51,0,0,0,.34-2.63,5,5,0,0,0-1.39-3.75,5.51,5.51,0,0,0-4-1.35,10.28,10.28,0,0,0-5.21,1.5,17.17,17.17,0,0,0-4.32,3.45,10.93,10.93,0,0,0-2.77,3.94,33.21,33.21,0,0,0-1.35,4.84l-4.35,20.32h-6.3l8.17-38.77Z"/><path class="cls-1" d="M1967.77,179.34l-1.43,5.77.15.15a18.49,18.49,0,0,1,6-5,15.93,15.93,0,0,1,7.53-1.83,12,12,0,0,1,6.3,1.57,7.83,7.83,0,0,1,3.45,5.4,16.69,16.69,0,0,1,5.82-5.06,15.48,15.48,0,0,1,7.46-1.91,16.53,16.53,0,0,1,4,.48,11.45,11.45,0,0,1,3.49,1.5,7.37,7.37,0,0,1,2.44,2.67,8.36,8.36,0,0,1,.9,4,23.25,23.25,0,0,1-.38,3.9c-.25,1.45-.5,2.72-.75,3.82l-4.87,23.25h-6.38l5.4-24.6c.15-.6.29-1.31.42-2.14a14.71,14.71,0,0,0,.18-2.06,4.82,4.82,0,0,0-1.68-3.75,6.16,6.16,0,0,0-4.24-1.5,8.88,8.88,0,0,0-2.74.45,15,15,0,0,0-2.66,1.16,15,15,0,0,0-4.35,3.72,11,11,0,0,0-2.33,4,43.53,43.53,0,0,0-1.27,4.73l-4.28,20h-6.37l4.65-22.12c.35-1.5.64-2.9.86-4.2a18.51,18.51,0,0,0,.34-2.63,5,5,0,0,0-1.39-3.75,5.51,5.51,0,0,0-4-1.35,10.28,10.28,0,0,0-5.21,1.5,17.17,17.17,0,0,0-4.32,3.45,10.93,10.93,0,0,0-2.77,3.94,33.21,33.21,0,0,0-1.35,4.84L1960,218.11h-6.3l8.17-38.77Z"/><path class="cls-1" d="M2042.54,218.11l1.2-5.85h-.15a14.78,14.78,0,0,1-6.07,5,18.67,18.67,0,0,1-7.73,1.65q-5.47,0-8.14-2.37T2019,209a23.49,23.49,0,0,1,.3-3.3c.2-1.35.48-2.78.83-4.28l4.72-22.12h6.38l-5,22.65q-.15.52-.3,1.35t-.3,1.68c-.1.58-.18,1.13-.23,1.65s-.07,1-.07,1.32a4.56,4.56,0,0,0,2,4.08,8.37,8.37,0,0,0,4.8,1.32,11.76,11.76,0,0,0,5-1,14.23,14.23,0,0,0,4.09-2.82,16.79,16.79,0,0,0,3-4.05,17.54,17.54,0,0,0,1.76-4.68l4.5-21.45h6.38l-8.18,38.77Z"/><path class="cls-1" d="M2073.52,179.34l-1.2,5.85h.15a15.11,15.11,0,0,1,6.07-5.07,18.39,18.39,0,0,1,7.73-1.68q5.47,0,8.14,2.4t2.66,7.57a23.49,23.49,0,0,1-.3,3.3c-.2,1.35-.48,2.78-.83,4.28l-4.72,22.12h-6.38l4.95-22.65c.05-.4.13-.86.23-1.39s.2-1.07.3-1.65.19-1.12.26-1.65a8.72,8.72,0,0,0,.11-1.31,4.59,4.59,0,0,0-2-4.09,8.44,8.44,0,0,0-4.8-1.31,11.7,11.7,0,0,0-5.21,1.28,14.86,14.86,0,0,0-4.39,3.22,10.53,10.53,0,0,0-2.7,3.64,26.76,26.76,0,0,0-1.57,4.46l-4.5,21.45h-6.3l8.1-38.77Z"/><path class="cls-1" d="M2115.37,179.34l-8.1,38.77H2101l8-38.77Zm-4.95-7,1.65-7.8h6.45l-1.65,7.8Z"/><path class="cls-1" d="M2146.94,186.05a8.54,8.54,0,0,0-6-2,12.6,12.6,0,0,0-6.49,1.65,15.46,15.46,0,0,0-4.72,4.28,19.2,19.2,0,0,0-2.89,5.88,22.39,22.39,0,0,0-1,6.42,18.44,18.44,0,0,0,.48,4.27,9.62,9.62,0,0,0,1.62,3.53,8,8,0,0,0,3,2.4,10.26,10.26,0,0,0,4.54.9,11.49,11.49,0,0,0,7.05-2.18,12.45,12.45,0,0,0,4.27-5.77h6.38a17.68,17.68,0,0,1-6.3,10.05,18.39,18.39,0,0,1-11.4,3.45q-7.95,0-12-4.35t-4-12.3a28.61,28.61,0,0,1,1.39-8.93,23.07,23.07,0,0,1,4.12-7.61,19.9,19.9,0,0,1,15.94-7.31q6.6,0,10.46,3.18t4.09,10h-6.37A7.19,7.19,0,0,0,2146.94,186.05Z"/><path class="cls-1" d="M2164.15,185.45a14.24,14.24,0,0,1,3.79-3.94,15.83,15.83,0,0,1,5.1-2.32,23.22,23.22,0,0,1,5.93-.75,31.06,31.06,0,0,1,5.4.45,13.85,13.85,0,0,1,4.5,1.57,8.63,8.63,0,0,1,3.11,3,9.22,9.22,0,0,1,1.16,4.84,17.3,17.3,0,0,1-.41,3.56c-.28,1.27-.54,2.44-.79,3.49L2189.47,206c-.15.8-.37,1.7-.64,2.7a10.55,10.55,0,0,0-.41,2.85,2.64,2.64,0,0,0,.52,1.88,1.82,1.82,0,0,0,1.35.52,3.07,3.07,0,0,0,1-.19l1-.33-1,4.72a12.51,12.51,0,0,1-1.91.56,9.06,9.06,0,0,1-2,.27,5.21,5.21,0,0,1-4-1.43,4.69,4.69,0,0,1-1-4l-.15-.15a13.38,13.38,0,0,1-5,4.12,18.69,18.69,0,0,1-7.95,1.43,17.8,17.8,0,0,1-4.61-.57,9.12,9.12,0,0,1-6.23-5.25,12.26,12.26,0,0,1-.93-5.06,10.77,10.77,0,0,1,1.83-6.67,11.63,11.63,0,0,1,4.69-3.64,23.14,23.14,0,0,1,6.3-1.69q3.45-.45,6.68-.75c1.7-.15,3.16-.31,4.38-.49a9.83,9.83,0,0,0,3-.86,3.77,3.77,0,0,0,1.76-1.72,6.91,6.91,0,0,0,.57-3.08,4.07,4.07,0,0,0-.75-2.55,5.43,5.43,0,0,0-1.88-1.54,8.88,8.88,0,0,0-2.51-.78,16.68,16.68,0,0,0-2.66-.23,17.18,17.18,0,0,0-3.57.38,10.32,10.32,0,0,0-3.18,1.23,8.35,8.35,0,0,0-2.4,2.18,7.14,7.14,0,0,0-1.28,3.19h-6.37A13.58,13.58,0,0,1,2164.15,185.45ZM2166,212a8.89,8.89,0,0,0,4.84,1.35q7.58,0,10.88-5.1a12.55,12.55,0,0,0,2.13-4.73q.57-2.55,1.24-5.25h-.15a8.76,8.76,0,0,1-3.41,1.39c-1.38.27-2.84.49-4.39.64s-3.11.33-4.69.56a18.16,18.16,0,0,0-4.23,1.09,7.88,7.88,0,0,0-3.08,2.13,6,6,0,0,0-1.27,3.87A4.48,4.48,0,0,0,2166,212Z"/><path class="cls-1" d="M2221.42,179.34l-1.2,5.62h-7.73l-4.8,22.8c-.05.45-.1.88-.15,1.28a10.24,10.24,0,0,0-.07,1.27,2.07,2.07,0,0,0,1.16,2.06,6,6,0,0,0,2.66.57,9.59,9.59,0,0,0,1.88-.19,17.19,17.19,0,0,0,1.8-.49l-1.13,5.85c-.75.1-1.5.19-2.25.26a21.2,21.2,0,0,1-2.25.12,19.92,19.92,0,0,1-3.37-.27,7.54,7.54,0,0,1-2.74-1,5.54,5.54,0,0,1-1.88-1.91,6,6,0,0,1-.71-3.08,11.27,11.27,0,0,1,.11-1.57c.08-.5.16-1.05.27-1.65l5.1-24.08h-6.53l1.2-5.62h6.53l2.4-11.48h6.37l-2.4,11.48Z"/><path class="cls-1" d="M2234.84,179.34l-8.1,38.77h-6.3l8-38.77Zm-5-7,1.65-7.8H2238l-1.65,7.8Z"/><path class="cls-1" d="M2240.13,193.66a23.62,23.62,0,0,1,4.27-7.8,21.24,21.24,0,0,1,6.83-5.4,19.92,19.92,0,0,1,9.11-2q7.88,0,12,4.08t4.12,12a29.66,29.66,0,0,1-1.42,9.15,23.82,23.82,0,0,1-4.2,7.83,20.66,20.66,0,0,1-6.75,5.44,19.74,19.74,0,0,1-9.08,2,18.76,18.76,0,0,1-6.86-1.2,14.21,14.21,0,0,1-8.36-8.44,18.17,18.17,0,0,1-1.13-6.49A28.83,28.83,0,0,1,2240.13,193.66Zm7.61,16.8q2.7,2.92,8,2.93a10.8,10.8,0,0,0,6.19-1.8,16.76,16.76,0,0,0,4.5-4.54,21.62,21.62,0,0,0,2.77-6,22,22,0,0,0,.94-6.08,14.94,14.94,0,0,0-.6-4.27,9,9,0,0,0-5.06-5.82,11.08,11.08,0,0,0-4.54-.86,11.59,11.59,0,0,0-6.45,1.8,16.35,16.35,0,0,0-4.65,4.54,20.36,20.36,0,0,0-2.81,6,22.87,22.87,0,0,0-.94,6.3A10.93,10.93,0,0,0,2247.74,210.46Z"/><path class="cls-1" d="M2294.39,179.34l-1.2,5.85h.15a15.11,15.11,0,0,1,6.07-5.07,18.39,18.39,0,0,1,7.73-1.68q5.47,0,8.13,2.4t2.67,7.57a23.49,23.49,0,0,1-.3,3.3c-.2,1.35-.48,2.78-.83,4.28l-4.72,22.12h-6.38l4.95-22.65c.05-.4.13-.86.23-1.39s.2-1.07.3-1.65.18-1.12.26-1.65a10.28,10.28,0,0,0,.11-1.31,4.59,4.59,0,0,0-1.95-4.09,8.44,8.44,0,0,0-4.8-1.31,11.67,11.67,0,0,0-5.21,1.28,14.73,14.73,0,0,0-4.39,3.22,10.53,10.53,0,0,0-2.7,3.64,26.76,26.76,0,0,0-1.57,4.46l-4.5,21.45h-6.3l8.1-38.77Z"/><path class="cls-1" d="M2346.51,185.75a9.73,9.73,0,0,0-5.77-1.69,19.79,19.79,0,0,0-2.93.23,9.32,9.32,0,0,0-2.66.78,5.5,5.5,0,0,0-1.91,1.5,3.8,3.8,0,0,0-.75,2.44,3.38,3.38,0,0,0,.86,2.33,8.89,8.89,0,0,0,2.32,1.8,25,25,0,0,0,3.31,1.53l3.71,1.47c1.3.55,2.56,1.15,3.79,1.8a17.25,17.25,0,0,1,3.26,2.21,10.15,10.15,0,0,1,2.32,2.92,8.27,8.27,0,0,1,.9,3.94,10.2,10.2,0,0,1-1.42,5.51,11.57,11.57,0,0,1-3.68,3.72,16.13,16.13,0,0,1-5.06,2.06,25.85,25.85,0,0,1-5.66.64,28.87,28.87,0,0,1-6.23-.64,13.14,13.14,0,0,1-4.91-2.14,10.36,10.36,0,0,1-3.26-4,14.5,14.5,0,0,1-1.2-6.26h6.3a6.39,6.39,0,0,0,.64,3.56,6,6,0,0,0,2.17,2.32,9.61,9.61,0,0,0,3.22,1.24,19.39,19.39,0,0,0,3.87.38,16.8,16.8,0,0,0,3.15-.3,9.28,9.28,0,0,0,2.85-1,6.08,6.08,0,0,0,2.06-1.83,4.77,4.77,0,0,0,.79-2.78,3.56,3.56,0,0,0-.9-2.44,9.46,9.46,0,0,0-2.33-1.83,23.08,23.08,0,0,0-3.26-1.54c-1.23-.48-2.46-1-3.71-1.54s-2.57-1.05-3.79-1.65a15.48,15.48,0,0,1-3.3-2.14,9.3,9.3,0,0,1-2.32-2.88,8.1,8.1,0,0,1-.87-3.83,9.23,9.23,0,0,1,1.24-4.8,10.87,10.87,0,0,1,3.26-3.49,16.05,16.05,0,0,1,4.62-2.13,18.82,18.82,0,0,1,5.28-.75,22.78,22.78,0,0,1,5.33.63,13.65,13.65,0,0,1,4.68,2.1,11,11,0,0,1,3.34,3.83,11.93,11.93,0,0,1,1.28,5.74h-6.38A5.38,5.38,0,0,0,2346.51,185.75Z"/></g></g></svg>